<?xml version="1.0" encoding="UTF-8" standalone="no"?>
<svg
   xmlns:serif="http://www.serif.com/"
   xmlns:dc="http://purl.org/dc/elements/1.1/"
   xmlns:cc="http://creativecommons.org/ns#"
   xmlns:rdf="http://www.w3.org/1999/02/22-rdf-syntax-ns#"
   xmlns:svg="http://www.w3.org/2000/svg"
   xmlns="http://www.w3.org/2000/svg"
   xmlns:sodipodi="http://sodipodi.sourceforge.net/DTD/sodipodi-0.dtd"
   xmlns:inkscape="http://www.inkscape.org/namespaces/inkscape"
   width="740.57898"
   height="740.57898"
   viewBox="0 0 740.57898 740.57898"
   version="1.1"
   xml:space="preserve"
   style="clip-rule:evenodd;fill-rule:evenodd;stroke-linejoin:round;stroke-miterlimit:1.41420996"
   id="svg51"
   sodipodi:docname="rustacean-flat-noshadow.svg"
   inkscape:version="0.92.4 5da689c313, 2019-01-14"
   inkscape:export-filename="/home/robin/Documents/rust/ferris_out/resources/rustacean-kog.png"
   inkscape:export-xdpi="6.4814153"
   inkscape:export-ydpi="6.4814153"><metadata
   id="metadata57"><rdf:RDF><cc:Work
       rdf:about=""><dc:format>image/svg+xml</dc:format><dc:type
         rdf:resource="http://purl.org/dc/dcmitype/StillImage" /><dc:title></dc:title></cc:Work></rdf:RDF></metadata><defs
   id="defs55" /><sodipodi:namedview
   pagecolor="#ffffff"
   bordercolor="#666666"
   borderopacity="1"
   objecttolerance="10"
   gridtolerance="10"
   guidetolerance="10"
   inkscape:pageopacity="0"
   inkscape:pageshadow="2"
   inkscape:window-width="1920"
   inkscape:window-height="1026"
   id="namedview53"
   showgrid="false"
   inkscape:zoom="0.70710678"
   inkscape:cx="257.88817"
   inkscape:cy="423.34804"
   inkscape:window-x="0"
   inkscape:window-y="0"
   inkscape:window-maximized="1"
   inkscape:current-layer="g16" />
    <g
   id="Layer-1"
   serif:id="Layer 1"
   transform="translate(-106.81101,-118.84202)">
        <g
   transform="translate(597.344,637.02)"
   id="g4">
            
        </g>
        
        
        <g
   transform="translate(1151.27,281.813)"
   id="g16">
            <path
   d="m -329.06431,201.89515 22.99994,-40.20157 c 2.34625,-4.0897 2.82224,-9.40397 1.29757,-14.06796 -1.52694,-4.63959 -4.86565,-7.96779 -8.81754,-8.78175 l -38.89219,-7.96325 c -1.50519,-3.70986 -3.08534,-7.36363 -4.67,-10.98849 l 16.33901,-45.132346 c 1.68135,-4.600692 1.32604,-9.943897 -0.90177,-14.115902 -2.21956,-4.192805 -5.9893,-6.641925 -10.00639,-6.451097 l -39.47088,1.730121 c -2.04416,-3.210626 -4.11979,-6.392311 -6.23741,-9.51521 l 9.07014,-48.3764444 c 0.91827,-4.9136139 -0.24136,-10.0551376 -3.0756,-13.6239056 -2.81999,-3.556108 -6.91805,-5.02757 -10.81371,-3.873554 l -38.44617,11.4026964 c -2.48942,-2.6544184 -5.02082,-5.2753754 -7.58144,-7.8438754 l 1.38526,-49.664312 c 0.14841,-5.027569 -1.79379,-9.805524 -5.13026,-12.593793 -3.33272,-2.807264 -7.5657,-3.231427 -11.211,-1.144973 l -35.86606,20.572425 c -2.88895,-1.998728 -5.79289,-3.979368 -8.72833,-5.893985 l -6.33785,-48.941695 c -0.64241,-4.95884 -3.28699,-9.16973 -6.99076,-11.0934 -3.69027,-1.9327 -7.92177,-1.30866 -11.16228,1.63517 l -31.97714,28.947179 c -3.14831,-1.261644 -6.31086,-2.470826 -9.5139,-3.627558 l -13.78213,-46.410281 c -1.40175,-4.72911 -4.63326,-8.20382 -8.5739,-9.18058 -3.92715,-0.96951 -7.96824,0.67107 -10.69154,4.34294 l -26.91509,36.33073 c -3.2555,-0.4522 -6.51101,-0.86462 -9.77701,-1.20377 l -20.78189,-42.24731 c -2.10637,-4.27962 -5.82437,-6.88431 -9.83173,-6.88431 -3.99836,0 -7.72387,2.60469 -9.81225,6.88431 l -20.78863,42.24731 c -3.26675,0.33915 -6.538,0.75157 -9.78676,1.20377 l -26.91809,-36.33073 c -2.72555,-3.67187 -6.78162,-5.31245 -10.69528,-4.34294 -3.93913,0.98761 -7.1759,4.45147 -8.57016,9.18058 l -13.79411,46.410281 c -3.1933,1.156732 -6.35735,2.375866 -9.51316,3.627558 l -31.96589,-28.947179 c -3.25027,-2.95378 -7.48099,-3.57691 -11.18102,-1.63517 -3.68727,1.92367 -6.34236,6.13456 -6.98101,11.0934 l -6.34235,48.941695 c -2.93393,1.914617 -5.83864,3.8835 -8.73509,5.893985 l -35.8623,-20.572425 c -3.64155,-2.094594 -7.89253,-1.662291 -11.20951,1.144973 -3.33196,2.788269 -5.27866,7.566224 -5.12725,12.593793 l 1.37552,49.664312 c -2.55239,2.5685 -5.07779,5.189457 -7.57995,7.8438754 l -38.43868,-11.4026964 c -3.9054,-1.144068 -7.99821,0.317446 -10.82495,3.873554 -2.84472,3.568768 -3.99612,8.7102917 -3.0831,13.6239056 l 9.0544,48.3764444 c -2.10038,3.13556 -4.17901,6.304584 -6.21642,9.51521 l -39.47012,-1.730121 c -3.98338,-0.14199 -7.78538,2.258292 -10.01168,6.451097 -2.2285,4.172005 -2.5658,9.51521 -0.9093,14.115902 l 16.35332,45.132346 c -1.58841,3.62486 -3.16631,7.27863 -4.68425,10.98849 l -38.89447,7.96325 c -3.9504,0.80311 -7.2786,4.12951 -8.8153,8.78175 -1.5291,4.66399 -1.0268,9.97826 1.2969,14.06796 l 23.0127,40.20157 c -0.18,0.70905 1.1577,2.46544 0.9778,3.1772"
   style="fill:#f74c00;fill-rule:nonzero;stroke-width:0.99999988"
   id="path14"
   inkscape:connector-curvature="0"
   sodipodi:nodetypes="ccccccccccccccccccccccccccccccccsccccccccccccccccccccccccccccccccc" />
        <path
   d="m -1019.2746,212.74796 -23,40.20156 c -2.3463,4.0897 -2.8223,9.40397 -1.2976,14.06798 1.527,4.63957 4.8657,7.96777 8.8176,8.78173 l 38.89215,7.96326 c 1.50519,3.70985 3.08536,7.36364 4.67,10.98847 l -16.33905,45.13235 c -1.6813,4.60071 -1.326,9.94391 0.9018,14.11592 2.2196,4.1928 5.9893,6.64192 10.00641,6.45109 l 39.47087,-1.73012 c 2.04416,3.21063 4.1198,6.39231 6.23742,9.51521 l -9.07015,48.37644 c -0.91826,4.91362 0.24137,10.05515 3.07561,13.62391 2.81999,3.55611 6.91804,5.02757 10.81371,3.87355 l 38.44616,-11.4027 c 2.48943,2.65442 5.02083,5.27538 7.58146,7.84389 l -1.38527,49.6643 c -0.14842,5.02757 1.79379,9.80553 5.13027,12.59379 3.3327,2.80727 7.56569,3.23143 11.21099,1.14498 l 35.86605,-20.57242 c 2.88895,1.99872 5.79291,3.97936 8.72833,5.89398 l 6.33786,48.94169 c 0.64241,4.95884 3.287,9.16973 6.99075,11.0934 3.69029,1.9327 7.92177,1.30867 11.16228,-1.63516 l 31.97714,-28.94718 c 3.14832,1.26163 6.31087,2.47082 9.5139,3.62755 l 13.78213,46.41028 c 1.40175,4.72911 4.63327,8.20382 8.57392,9.18058 3.92714,0.96952 7.96822,-0.67107 10.69153,-4.34294 l 26.91509,-36.33072 c 3.2555,0.4522 6.51101,0.86461 9.777,1.20376 l 20.78189,42.24732 c 2.10637,4.27961 5.82438,6.8843 9.83174,6.8843 3.99836,0 7.72386,-2.60469 9.81224,-6.8843 l 20.78863,-42.24732 c 3.26675,-0.33915 6.538,-0.75156 9.78676,-1.20376 l 26.91809,36.33072 c 2.72555,3.67187 6.78163,5.31246 10.69528,4.34294 3.93915,-0.98761 7.17591,-4.45147 8.57017,-9.18058 l 13.79411,-46.41028 c 3.19329,-1.15673 6.35734,-2.37587 9.51317,-3.62755 l 31.96588,28.94718 c 3.25026,2.95377 7.481,3.57691 11.18102,1.63516 3.68727,-1.92367 6.34236,-6.13456 6.98101,-11.0934 l 6.34236,-48.94169 c 2.93393,-1.91462 5.83862,-3.8835 8.73507,-5.89398 l 35.8623,20.57242 c 3.64156,2.09459 7.89254,1.66229 11.20951,-1.14498 3.33196,-2.78826 5.27868,-7.56622 5.12725,-12.59379 l -1.37551,-49.6643 c 2.55238,-2.56851 5.07779,-5.18947 7.57995,-7.84389 l 38.43868,11.4027 c 3.90541,1.14406 7.99823,-0.31744 10.82496,-3.87355 2.84473,-3.56876 3.99612,-8.71029 3.0831,-13.62391 l -9.0544,-48.37644 c 2.10038,-3.13556 4.17901,-6.30458 6.21642,-9.51521 l 39.47013,1.73012 c 3.98337,0.14199 7.78533,-2.25829 10.01163,-6.45109 2.22856,-4.17201 2.56589,-9.51521 0.90928,-14.11592 l -16.35325,-45.13235 c 1.58839,-3.62483 3.1663,-7.27862 4.68424,-10.98847 l 38.89439,-7.96326 c 3.95039,-0.80311 7.2786,-4.12949 8.81527,-8.78173 1.52919,-4.66401 1.02696,-9.97828 -1.29679,-14.06798 l -23.01269,-40.20156 c 0.17991,-0.70905 -0.60536,-1.6061 -0.42545,-2.31786"
   style="clip-rule:evenodd;fill:#f74c00;fill-rule:nonzero;stroke-width:0.99999988;stroke-linejoin:round;stroke-miterlimit:1.41420996"
   id="path14-3"
   inkscape:connector-curvature="0"
   sodipodi:nodetypes="ccccccccccccccccccccccccccccccccsccccccccccccccccccccccccccccccccc" /><rect
   style="fill:#f74c00;fill-opacity:1;stroke:#f74c00;stroke-width:17.00787354;stroke-linecap:round;stroke-linejoin:round;stroke-miterlimit:4;stroke-dasharray:none;stroke-opacity:1"
   id="rect76"
   width="673.46613"
   height="51.480438"
   x="-1010.9161"
   y="187.42821" /></g>
        
        
        
        <g
   transform="translate(535.54167,532.54312)"
   id="g32">
            <path
   d="m 0,-92.063 c 0,0 43.486,-47.615 86.974,0 0,0 34.17,63.492 0,95.234 0,0 -55.912,44.444 -86.974,0 0,0 -37.275,-34.921 0,-95.234"
   style="fill-rule:nonzero"
   id="path30"
   inkscape:connector-curvature="0" />
        </g>
        <g
   transform="translate(585.88767,458.14212)"
   id="g36">
            <path
   d="m 0,0.002 c 0,18.541 -10.93,33.572 -24.408,33.572 -13.477,0 -24.406,-15.031 -24.406,-33.572 0,-18.541 10.929,-33.574 24.406,-33.574 C -10.93,-33.572 0,-18.539 0,0.002"
   style="fill:#ffffff;fill-rule:nonzero"
   id="path34"
   inkscape:connector-curvature="0" />
        </g>
        <g
   transform="translate(341.44967,525.91712)"
   id="g40">
            <path
   d="m 0,-98.439 c 0,0 74.596,-33.028 94.956,40.691 0,0 21.327,85.926 -61.259,90.776 0,0 -105.31,-20.283 -33.697,-131.467"
   style="fill-rule:nonzero"
   id="path38"
   inkscape:connector-curvature="0" />
        </g>
        <g
   transform="translate(378.91567,459.36112)"
   id="g44">
            <path
   d="m 0,0 c 0,19.119 -11.27,34.627 -25.173,34.627 -13.898,0 -25.171,-15.508 -25.171,-34.627 0,-19.124 11.273,-34.627 25.171,-34.627 C -11.27,-34.627 0,-19.124 0,0"
   style="fill:#ffffff;fill-rule:nonzero"
   id="path42"
   inkscape:connector-curvature="0" />
        </g>
        
    </g>
</svg>